<?xml version="1.0" encoding="UTF-8" standalone="no"?><!DOCTYPE svg PUBLIC "-//W3C//DTD SVG 1.1//EN" "http://www.w3.org/Graphics/SVG/1.1/DTD/svg11.dtd"><!-- Generated by graphviz version 2.40.1 (20161225.0304)
 --><!-- Title: %0 Pages: 1 --><svg xmlns="http://www.w3.org/2000/svg" xmlns:xlink="http://www.w3.org/1999/xlink" width="998pt" height="295pt" viewBox="0.00 0.00 997.82 294.60">
<g id="graph0" class="graph" transform="scale(1 1) rotate(0) translate(4 290.6)">
<title>%0</title>
<polygon fill="#ffffff" stroke="transparent" points="-4,4 -4,-290.6 993.8171,-290.6 993.8171,4 -4,4"/>
<!-- start -->
<g id="node1" class="node">
<title>start</title>
<polygon fill="none" stroke="#000000" points="546.0374,-286.6 433.2026,-286.6 433.2026,-250.6 546.0374,-250.6 546.0374,-286.6"/>
<text text-anchor="middle" x="489.62" y="-264.4" font-family="Times,serif" font-size="14.00" fill="#000000">Packet Sent from</text>
</g>
<!-- captive_portal -->
<g id="node2" class="node">
<title>captive_portal</title>
<polygon fill="none" stroke="#000000" points="264.1072,-213.6 167.1328,-213.6 167.1328,-177.6 264.1072,-177.6 264.1072,-213.6"/>
<text text-anchor="middle" x="215.62" y="-191.4" font-family="Times,serif" font-size="14.00" fill="#000000">Captive Portal</text>
</g>
<!-- start&#45;&gt;captive_portal -->
<g id="edge1" class="edge">
<title>start-&gt;captive_portal</title>
<path fill="none" stroke="#000000" d="M433.1793,-253.5629C386.6696,-241.1716 320.9482,-223.6619 273.9327,-211.1359"/>
<polygon fill="#000000" stroke="#000000" points="274.7616,-207.7347 264.1976,-208.5422 272.9595,-214.4987 274.7616,-207.7347"/>
</g>
<!-- internet -->
<g id="node3" class="node">
<title>internet</title>
<polygon fill="none" stroke="#000000" points="519.1534,-213.6 460.0866,-213.6 460.0866,-177.6 519.1534,-177.6 519.1534,-213.6"/>
<text text-anchor="middle" x="489.62" y="-191.4" font-family="Times,serif" font-size="14.00" fill="#000000">Internet</text>
</g>
<!-- start&#45;&gt;internet -->
<g id="edge2" class="edge">
<title>start-&gt;internet</title>
<path fill="none" stroke="#000000" d="M489.62,-250.5551C489.62,-242.4828 489.62,-232.7764 489.62,-223.7817"/>
<polygon fill="#000000" stroke="#000000" points="493.1201,-223.6903 489.62,-213.6904 486.1201,-223.6904 493.1201,-223.6903"/>
</g>
<!-- other -->
<g id="node4" class="node">
<title>other</title>
<polygon fill="none" stroke="#000000" points="672.0944,-213.6 561.1456,-213.6 561.1456,-177.6 672.0944,-177.6 672.0944,-213.6"/>
<text text-anchor="middle" x="616.62" y="-191.4" font-family="Times,serif" font-size="14.00" fill="#000000">Other equipment</text>
</g>
<!-- start&#45;&gt;other -->
<g id="edge3" class="edge">
<title>start-&gt;other</title>
<path fill="none" stroke="#000000" d="M521.0133,-250.5551C537.6517,-240.9912 558.2811,-229.1334 576.1134,-218.8833"/>
<polygon fill="#000000" stroke="#000000" points="578.2221,-221.7083 585.1477,-213.6904 574.7337,-215.6394 578.2221,-221.7083"/>
</g>
<!-- check_valid_1_1 -->
<g id="node5" class="node">
<title>check_valid_1_1</title>
<polygon fill="none" stroke="#000000" points="179.3602,-124.8 -.1202,-124.8 -.1202,-88.8 179.3602,-88.8 179.3602,-124.8"/>
<text text-anchor="middle" x="89.62" y="-102.6" font-family="Times,serif" font-size="14.00" fill="#000000">self.check_valid(packet.src)?</text>
</g>
<!-- captive_portal&#45;&gt;check_valid_1_1 -->
<g id="edge8" class="edge">
<title>captive_portal-&gt;check_valid_1_1</title>
<path fill="none" stroke="#000000" d="M166.9863,-185.066C150.1925,-179.6022 132.1623,-171.4904 118.4152,-159.6 110.5027,-152.7562 104.3729,-143.1814 99.8425,-134.0617"/>
<polygon fill="#000000" stroke="#000000" points="102.9932,-132.5344 95.6926,-124.8564 96.6117,-135.4113 102.9932,-132.5344"/>
<text text-anchor="middle" x="160.2224" y="-147" font-family="Times,serif" font-size="14.00" fill="#000000">Send to Others</text>
</g>
<!-- set_mod_1 -->
<g id="node9" class="node">
<title>set_mod_1</title>
<polygon fill="none" stroke="#000000" points="247.4333,-36 151.8067,-36 151.8067,0 247.4333,0 247.4333,-36"/>
<text text-anchor="middle" x="199.62" y="-13.8" font-family="Times,serif" font-size="14.00" fill="#000000">set_mod(port)</text>
</g>
<!-- captive_portal&#45;&gt;set_mod_1 -->
<g id="edge7" class="edge">
<title>captive_portal-&gt;set_mod_1</title>
<path fill="none" stroke="#000000" d="M213.9978,-177.5934C211.2067,-146.612 205.4764,-83.006 202.1547,-46.1346"/>
<polygon fill="#000000" stroke="#000000" points="205.6297,-45.6998 201.2465,-36.0543 198.658,-46.328 205.6297,-45.6998"/>
<text text-anchor="middle" x="254.3297" y="-102.6" font-family="Times,serif" font-size="14.00" fill="#000000">Send to Internet</text>
</g>
<!-- check_valid_1_2 -->
<g id="node6" class="node">
<title>check_valid_1_2</title>
<polygon fill="none" stroke="#000000" points="502.3602,-124.8 322.8798,-124.8 322.8798,-88.8 502.3602,-88.8 502.3602,-124.8"/>
<text text-anchor="middle" x="412.62" y="-102.6" font-family="Times,serif" font-size="14.00" fill="#000000">self.check_valid(packet.src)?</text>
</g>
<!-- internet&#45;&gt;check_valid_1_2 -->
<g id="edge10" class="edge">
<title>internet-&gt;check_valid_1_2</title>
<path fill="none" stroke="#000000" d="M461.1119,-177.4729C454.1583,-172.2372 447.0945,-166.1502 441.4152,-159.6 434.8851,-152.0686 429.2209,-142.8115 424.6848,-134.1631"/>
<polygon fill="#000000" stroke="#000000" points="427.7874,-132.5412 420.218,-125.1282 421.5125,-135.6436 427.7874,-132.5412"/>
<text text-anchor="middle" x="483.2224" y="-147" font-family="Times,serif" font-size="14.00" fill="#000000">Send to Others</text>
</g>
<!-- set_mod_2 -->
<g id="node11" class="node">
<title>set_mod_2</title>
<polygon fill="none" stroke="#000000" points="569.4333,-36 473.8067,-36 473.8067,0 569.4333,0 569.4333,-36"/>
<text text-anchor="middle" x="521.62" y="-13.8" font-family="Times,serif" font-size="14.00" fill="#000000">set_mod(port)</text>
</g>
<!-- internet&#45;&gt;set_mod_2 -->
<g id="edge9" class="edge">
<title>internet-&gt;set_mod_2</title>
<path fill="none" stroke="#000000" d="M512.421,-177.4934C517.3739,-172.2966 521.9312,-166.2229 524.62,-159.6 539.6129,-122.6705 534.4167,-75.7373 528.5871,-46.2743"/>
<polygon fill="#000000" stroke="#000000" points="531.9598,-45.3084 526.4469,-36.2608 525.1144,-46.7715 531.9598,-45.3084"/>
<text text-anchor="middle" x="597.8069" y="-102.6" font-family="Times,serif" font-size="14.00" fill="#000000">Send to Captive Portal</text>
</g>
<!-- check_valid_2 -->
<g id="node7" class="node">
<title>check_valid_2</title>
<polygon fill="none" stroke="#000000" points="862.3602,-124.8 682.8798,-124.8 682.8798,-88.8 862.3602,-88.8 862.3602,-124.8"/>
<text text-anchor="middle" x="772.62" y="-102.6" font-family="Times,serif" font-size="14.00" fill="#000000">self.check_valid(packet.src)?</text>
</g>
<!-- other&#45;&gt;check_valid_2 -->
<g id="edge4" class="edge">
<title>other-&gt;check_valid_2</title>
<path fill="none" stroke="#000000" d="M648.5654,-177.4157C672.7262,-163.6626 706.0721,-144.6811 732.1072,-129.8611"/>
<polygon fill="#000000" stroke="#000000" points="734.0251,-132.7968 740.9843,-124.808 730.5622,-126.7133 734.0251,-132.7968"/>
</g>
<!-- drop_1 -->
<g id="node8" class="node">
<title>drop_1</title>
<polygon fill="none" stroke="#000000" points="116.62,-36 62.62,-36 62.62,0 116.62,0 116.62,-36"/>
<text text-anchor="middle" x="89.62" y="-13.8" font-family="Times,serif" font-size="14.00" fill="#000000">drop()</text>
</g>
<!-- check_valid_1_1&#45;&gt;drop_1 -->
<g id="edge11" class="edge">
<title>check_valid_1_1-&gt;drop_1</title>
<path fill="none" stroke="#000000" d="M89.62,-88.4006C89.62,-76.2949 89.62,-60.2076 89.62,-46.4674"/>
<polygon fill="#000000" stroke="#000000" points="93.1201,-46.072 89.62,-36.072 86.1201,-46.0721 93.1201,-46.072"/>
<text text-anchor="middle" x="102.8339" y="-58.2" font-family="Times,serif" font-size="14.00" fill="#000000">True</text>
</g>
<!-- check_valid_1_1&#45;&gt;set_mod_1 -->
<g id="edge12" class="edge">
<title>check_valid_1_1-&gt;set_mod_1</title>
<path fill="none" stroke="#000000" d="M112.1456,-88.6157C128.6068,-75.327 151.1146,-57.1571 169.1764,-42.5763"/>
<polygon fill="#000000" stroke="#000000" points="171.542,-45.1648 177.1245,-36.16 167.145,-39.718 171.542,-45.1648"/>
<text text-anchor="middle" x="169.3935" y="-58.2" font-family="Times,serif" font-size="14.00" fill="#000000">False</text>
</g>
<!-- drop_2 -->
<g id="node10" class="node">
<title>drop_2</title>
<polygon fill="none" stroke="#000000" points="439.62,-36 385.62,-36 385.62,0 439.62,0 439.62,-36"/>
<text text-anchor="middle" x="412.62" y="-13.8" font-family="Times,serif" font-size="14.00" fill="#000000">drop()</text>
</g>
<!-- check_valid_1_2&#45;&gt;drop_2 -->
<g id="edge13" class="edge">
<title>check_valid_1_2-&gt;drop_2</title>
<path fill="none" stroke="#000000" d="M412.62,-88.4006C412.62,-76.2949 412.62,-60.2076 412.62,-46.4674"/>
<polygon fill="#000000" stroke="#000000" points="416.1201,-46.072 412.62,-36.072 409.1201,-46.0721 416.1201,-46.072"/>
<text text-anchor="middle" x="427.3935" y="-58.2" font-family="Times,serif" font-size="14.00" fill="#000000">False</text>
</g>
<!-- check_valid_1_2&#45;&gt;set_mod_2 -->
<g id="edge14" class="edge">
<title>check_valid_1_2-&gt;set_mod_2</title>
<path fill="none" stroke="#000000" d="M434.9408,-88.6157C451.2524,-75.327 473.5556,-57.1571 491.4532,-42.5763"/>
<polygon fill="#000000" stroke="#000000" points="493.7868,-45.1896 499.329,-36.16 489.3655,-39.7626 493.7868,-45.1896"/>
<text text-anchor="middle" x="490.8339" y="-58.2" font-family="Times,serif" font-size="14.00" fill="#000000">True</text>
</g>
<!-- set_mod3 -->
<g id="node12" class="node">
<title>set_mod3</title>
<polygon fill="none" stroke="#000000" points="789.4631,-36 643.7769,-36 643.7769,0 789.4631,0 789.4631,-36"/>
<text text-anchor="middle" x="716.62" y="-13.8" font-family="Times,serif" font-size="14.00" fill="#000000">set_mod(internet_mac)</text>
</g>
<!-- check_valid_2&#45;&gt;set_mod3 -->
<g id="edge5" class="edge">
<title>check_valid_2-&gt;set_mod3</title>
<path fill="none" stroke="#000000" d="M761.0168,-88.4006C753.0802,-75.8155 742.4299,-58.9271 733.5501,-44.8463"/>
<polygon fill="#000000" stroke="#000000" points="736.3115,-42.6636 728.0168,-36.072 730.3905,-46.3975 736.3115,-42.6636"/>
<text text-anchor="middle" x="763.8339" y="-58.2" font-family="Times,serif" font-size="14.00" fill="#000000">True</text>
</g>
<!-- set_mod4 -->
<g id="node13" class="node">
<title>set_mod4</title>
<polygon fill="none" stroke="#000000" points="990.0146,-36 807.2254,-36 807.2254,0 990.0146,0 990.0146,-36"/>
<text text-anchor="middle" x="898.62" y="-13.8" font-family="Times,serif" font-size="14.00" fill="#000000">set_mod(captive_portal_port)</text>
</g>
<!-- check_valid_2&#45;&gt;set_mod4 -->
<g id="edge6" class="edge">
<title>check_valid_2-&gt;set_mod4</title>
<path fill="none" stroke="#000000" d="M798.422,-88.6157C817.5324,-75.1474 843.7574,-56.6651 864.5842,-41.9871"/>
<polygon fill="#000000" stroke="#000000" points="866.6947,-44.7816 872.8525,-36.16 862.6622,-39.0598 866.6947,-44.7816"/>
<text text-anchor="middle" x="862.3935" y="-58.2" font-family="Times,serif" font-size="14.00" fill="#000000">False</text>
</g>
</g>
</svg>