<?xml version="1.0" encoding="UTF-8" standalone="no"?><!DOCTYPE svg PUBLIC "-//W3C//DTD SVG 1.1//EN" "http://www.w3.org/Graphics/SVG/1.1/DTD/svg11.dtd"><!-- Generated by graphviz version 2.40.1 (20161225.0304)
 --><!-- Title: modules Pages: 1 --><svg xmlns="http://www.w3.org/2000/svg" xmlns:xlink="http://www.w3.org/1999/xlink" width="1424pt" height="399pt" viewBox="0.00 0.00 1423.97 399.20">
<g id="graph0" class="graph" transform="scale(1 1) rotate(0) translate(4 395.2)">
<title>modules</title>
<polygon fill="#ffffff" stroke="transparent" points="-4,4 -4,-395.2 1419.9655,-395.2 1419.9655,4 -4,4"/>
<!-- start -->
<g id="node1" class="node">
<title>start</title>
<polygon fill="none" stroke="#000000" points="892.8874,-391.2 609.1858,-391.2 609.1858,-355.2 892.8874,-355.2 892.8874,-391.2"/>
<text text-anchor="middle" x="751.0366" y="-369" font-family="Times,serif" font-size="14.00" fill="#000000">Are students interested in network engineering?</text>
</g>
<!-- exper_dns -->
<g id="node4" class="node">
<title>exper_dns</title>
<polygon fill="none" stroke="#000000" points="556.2845,-213.6 193.7887,-213.6 193.7887,-177.6 556.2845,-177.6 556.2845,-213.6"/>
<text text-anchor="middle" x="375.0366" y="-191.4" font-family="Times,serif" font-size="14.00" fill="#000000">Are students have knowledge and experience related to DNS?</text>
</g>
<!-- start&#45;&gt;exper_dns -->
<g id="edge1" class="edge">
<title>start-&gt;exper_dns</title>
<path fill="none" stroke="#000000" d="M712.9145,-355.1934C643.8044,-322.5499 498.0144,-253.6874 422.5455,-218.0404"/>
<polygon fill="#000000" stroke="#000000" points="423.7965,-214.7605 413.2596,-213.6543 420.8068,-221.09 423.7965,-214.7605"/>
<text text-anchor="middle" x="609.5899" y="-280.2" font-family="Times,serif" font-size="14.00" fill="#000000">No</text>
</g>
<!-- tcp -->
<g id="node6" class="node">
<title>tcp</title>
<polygon fill="none" stroke="#000000" points="1064.0136,-302.4 742.0596,-302.4 742.0596,-266.4 1064.0136,-266.4 1064.0136,-302.4"/>
<text text-anchor="middle" x="903.0366" y="-280.2" font-family="Times,serif" font-size="14.00" fill="#000000">Do students need foundational network programming?</text>
</g>
<!-- start&#45;&gt;tcp -->
<g id="edge5" class="edge">
<title>start-&gt;tcp</title>
<path fill="none" stroke="#000000" d="M782.1629,-355.0157C805.7042,-341.2626 838.195,-322.2811 863.5626,-307.4611"/>
<polygon fill="#000000" stroke="#000000" points="865.3431,-310.4745 872.212,-302.408 861.812,-304.4304 865.3431,-310.4745"/>
<text text-anchor="middle" x="851.9195" y="-324.6" font-family="Times,serif" font-size="14.00" fill="#000000">Yes</text>
</g>
<!-- int_dns -->
<g id="node2" class="node">
<title>int_dns</title>
<polygon fill="none" stroke="#000000" points="853.7409,-213.6 574.3323,-213.6 574.3323,-177.6 853.7409,-177.6 853.7409,-213.6"/>
<text text-anchor="middle" x="714.0366" y="-191.4" font-family="Times,serif" font-size="14.00" fill="#000000">Are students interested in understanding DNS?</text>
</g>
<!-- int_web -->
<g id="node3" class="node">
<title>int_web</title>
<polygon fill="none" stroke="#000000" points="902.1744,-124.8 631.8988,-124.8 631.8988,-88.8 902.1744,-88.8 902.1744,-124.8"/>
<text text-anchor="middle" x="767.0366" y="-102.6" font-family="Times,serif" font-size="14.00" fill="#000000">Are students interested in Web development?</text>
</g>
<!-- int_dns&#45;&gt;int_web -->
<g id="edge9" class="edge">
<title>int_dns-&gt;int_web</title>
<path fill="none" stroke="#000000" d="M725.0182,-177.2006C732.5296,-164.6155 742.6094,-147.7271 751.0135,-133.6463"/>
<polygon fill="#000000" stroke="#000000" points="754.1307,-135.2527 756.2504,-124.872 748.1199,-131.6651 754.1307,-135.2527"/>
</g>
<!-- module3 -->
<g id="node11" class="node">
<title>module3</title>
<polygon fill="none" stroke="#000000" points="613.6541,-124.8 376.4191,-124.8 376.4191,-88.8 613.6541,-88.8 613.6541,-124.8"/>
<text text-anchor="middle" x="495.0366" y="-102.6" font-family="Times,serif" font-size="14.00" fill="#000000">Module 3: DNS Server Implementation</text>
</g>
<!-- int_dns&#45;&gt;module3 -->
<g id="edge8" class="edge">
<title>int_dns-&gt;module3</title>
<path fill="none" stroke="#000000" d="M669.4547,-177.523C634.6691,-163.4181 586.2035,-143.7663 549.1873,-128.757"/>
<polygon fill="#000000" stroke="#000000" points="550.1384,-125.3659 539.5561,-124.8517 547.508,-131.8529 550.1384,-125.3659"/>
<text text-anchor="middle" x="635.9195" y="-147" font-family="Times,serif" font-size="14.00" fill="#000000">Yes</text>
</g>
<!-- module4 -->
<g id="node12" class="node">
<title>module4</title>
<polygon fill="none" stroke="#000000" points="655.3307,-36 288.7425,-36 288.7425,0 655.3307,0 655.3307,-36"/>
<text text-anchor="middle" x="472.0366" y="-13.8" font-family="Times,serif" font-size="14.00" fill="#000000">Module 4: Web Server Frontend and Backend Implementation</text>
</g>
<!-- int_web&#45;&gt;module4 -->
<g id="edge10" class="edge">
<title>int_web-&gt;module4</title>
<path fill="none" stroke="#000000" d="M706.9834,-88.723C659.129,-74.318 592.055,-54.1276 541.818,-39.0054"/>
<polygon fill="#000000" stroke="#000000" points="542.5902,-35.5828 532.0057,-36.0517 540.5724,-42.2857 542.5902,-35.5828"/>
<text text-anchor="middle" x="656.9195" y="-58.2" font-family="Times,serif" font-size="14.00" fill="#000000">Yes</text>
</g>
<!-- exper_web -->
<g id="node5" class="node">
<title>exper_web</title>
<polygon fill="none" stroke="#000000" points="358.1098,-124.8 -.0366,-124.8 -.0366,-88.8 358.1098,-88.8 358.1098,-124.8"/>
<text text-anchor="middle" x="179.0366" y="-102.6" font-family="Times,serif" font-size="14.00" fill="#000000">Are students have knowledge and experience related to web?</text>
</g>
<!-- exper_dns&#45;&gt;exper_web -->
<g id="edge3" class="edge">
<title>exper_dns-&gt;exper_web</title>
<path fill="none" stroke="#000000" d="M334.9001,-177.4157C304.0139,-163.4224 261.181,-144.0164 228.2317,-129.0884"/>
<polygon fill="#000000" stroke="#000000" points="229.3372,-125.7468 218.784,-124.808 226.4484,-132.123 229.3372,-125.7468"/>
</g>
<!-- exper_dns&#45;&gt;module3 -->
<g id="edge2" class="edge">
<title>exper_dns-&gt;module3</title>
<path fill="none" stroke="#000000" d="M399.61,-177.4157C417.7294,-164.0073 442.5646,-145.6293 462.3568,-130.9831"/>
<polygon fill="#000000" stroke="#000000" points="464.5396,-133.7219 470.4961,-124.96 460.3757,-128.095 464.5396,-133.7219"/>
<text text-anchor="middle" x="456.9195" y="-147" font-family="Times,serif" font-size="14.00" fill="#000000">Yes</text>
</g>
<!-- exper_web&#45;&gt;module4 -->
<g id="edge4" class="edge">
<title>exper_web-&gt;module4</title>
<path fill="none" stroke="#000000" d="M238.6827,-88.723C286.2126,-74.318 352.8319,-54.1276 402.7283,-39.0054"/>
<polygon fill="#000000" stroke="#000000" points="403.9191,-42.3018 412.474,-36.0517 401.8887,-35.6027 403.9191,-42.3018"/>
<text text-anchor="middle" x="362.9195" y="-58.2" font-family="Times,serif" font-size="14.00" fill="#000000">Yes</text>
</g>
<!-- tcp&#45;&gt;int_dns -->
<g id="edge7" class="edge">
<title>tcp-&gt;int_dns</title>
<path fill="none" stroke="#000000" d="M864.3336,-266.2157C834.5504,-252.2224 793.2472,-232.8164 761.4747,-217.8884"/>
<polygon fill="#000000" stroke="#000000" points="762.9037,-214.6927 752.3645,-213.608 759.9269,-221.0283 762.9037,-214.6927"/>
</g>
<!-- switch -->
<g id="node7" class="node">
<title>switch</title>
<polygon fill="none" stroke="#000000" points="1214.8708,-213.6 871.2024,-213.6 871.2024,-177.6 1214.8708,-177.6 1214.8708,-213.6"/>
<text text-anchor="middle" x="1043.0366" y="-191.4" font-family="Times,serif" font-size="14.00" fill="#000000">Are students have knowledge and experience with Switch.</text>
</g>
<!-- tcp&#45;&gt;switch -->
<g id="edge11" class="edge">
<title>tcp-&gt;switch</title>
<path fill="none" stroke="#000000" d="M931.7055,-266.2157C953.128,-252.6277 982.5968,-233.9361 1005.8347,-219.1966"/>
<polygon fill="#000000" stroke="#000000" points="1007.8362,-222.0719 1014.406,-213.76 1004.0867,-216.1607 1007.8362,-222.0719"/>
<text text-anchor="middle" x="994.5899" y="-235.8" font-family="Times,serif" font-size="14.00" fill="#000000">No</text>
</g>
<!-- module1 -->
<g id="node9" class="node">
<title>module1</title>
<polygon fill="none" stroke="#000000" points="1413.7956,-213.6 1232.2776,-213.6 1232.2776,-177.6 1413.7956,-177.6 1413.7956,-213.6"/>
<text text-anchor="middle" x="1323.0366" y="-191.4" font-family="Times,serif" font-size="14.00" fill="#000000">Module 1: TCP Server/Client</text>
</g>
<!-- tcp&#45;&gt;module1 -->
<g id="edge6" class="edge">
<title>tcp-&gt;module1</title>
<path fill="none" stroke="#000000" d="M988.2829,-266.3765C1057.6704,-251.706 1155.5627,-231.0088 1227.5703,-215.7843"/>
<polygon fill="#000000" stroke="#000000" points="1228.4937,-219.1665 1237.5534,-213.6736 1227.0457,-212.3179 1228.4937,-219.1665"/>
<text text-anchor="middle" x="1161.9195" y="-235.8" font-family="Times,serif" font-size="14.00" fill="#000000">Yes</text>
</g>
<!-- module2 -->
<g id="node10" class="node">
<title>module2</title>
<polygon fill="none" stroke="#000000" points="1147.5105,-124.8 938.5627,-124.8 938.5627,-88.8 1147.5105,-88.8 1147.5105,-124.8"/>
<text text-anchor="middle" x="1043.0366" y="-102.6" font-family="Times,serif" font-size="14.00" fill="#000000">Module 2: Switch Implementation</text>
</g>
<!-- switch&#45;&gt;module2 -->
<g id="edge12" class="edge">
<title>switch-&gt;module2</title>
<path fill="none" stroke="#000000" d="M1043.0366,-177.2006C1043.0366,-165.0949 1043.0366,-149.0076 1043.0366,-135.2674"/>
<polygon fill="#000000" stroke="#000000" points="1046.5367,-134.872 1043.0366,-124.872 1039.5367,-134.8721 1046.5367,-134.872"/>
<text text-anchor="middle" x="1053.9195" y="-147" font-family="Times,serif" font-size="14.00" fill="#000000">Yes</text>
</g>
<!-- mininet -->
<g id="node8" class="node">
<title>mininet</title>
<polygon fill="none" stroke="#000000" points="1415.8944,-391.2 1062.1788,-391.2 1062.1788,-355.2 1415.8944,-355.2 1415.8944,-391.2"/>
<text text-anchor="middle" x="1239.0366" y="-369" font-family="Times,serif" font-size="14.00" fill="#000000">Do students have experience with network simulation tools?</text>
</g>
<!-- module5 -->
<g id="node13" class="node">
<title>module5</title>
<polygon fill="none" stroke="#000000" points="1345.956,-302.4 1132.1172,-302.4 1132.1172,-266.4 1345.956,-266.4 1345.956,-302.4"/>
<text text-anchor="middle" x="1239.0366" y="-280.2" font-family="Times,serif" font-size="14.00" fill="#000000">Module 5: Mininet Implementation</text>
</g>
<!-- mininet&#45;&gt;module5 -->
<g id="edge13" class="edge">
<title>mininet-&gt;module5</title>
<path fill="none" stroke="#000000" d="M1239.0366,-354.8006C1239.0366,-342.6949 1239.0366,-326.6076 1239.0366,-312.8674"/>
<polygon fill="#000000" stroke="#000000" points="1242.5367,-312.472 1239.0366,-302.472 1235.5367,-312.4721 1242.5367,-312.472"/>
<text text-anchor="middle" x="1249.9195" y="-324.6" font-family="Times,serif" font-size="14.00" fill="#000000">Yes</text>
</g>
</g>
</svg>