<?xml version="1.0" encoding="UTF-8" standalone="no"?><!DOCTYPE svg PUBLIC "-//W3C//DTD SVG 1.1//EN" "http://www.w3.org/Graphics/SVG/1.1/DTD/svg11.dtd"><!-- Generated by graphviz version 2.40.1 (20161225.0304)
 --><!-- Title: %0 Pages: 1 --><svg xmlns="http://www.w3.org/2000/svg" xmlns:xlink="http://www.w3.org/1999/xlink" width="1061pt" height="295pt" viewBox="0.00 0.00 1060.66 294.60">
<g id="graph0" class="graph" transform="scale(1 1) rotate(0) translate(4 290.6)">
<title>%0</title>
<polygon fill="#ffffff" stroke="transparent" points="-4,4 -4,-290.6 1056.6628,-290.6 1056.6628,4 -4,4"/>
<!-- start -->
<g id="node1" class="node">
<title>start</title>
<polygon fill="none" stroke="#000000" points="604.9421,-286.6 489.8631,-286.6 489.8631,-250.6 604.9421,-250.6 604.9421,-286.6"/>
<text text-anchor="middle" x="547.4026" y="-264.4" font-family="Times,serif" font-size="14.00" fill="#000000">Packet Sent From</text>
</g>
<!-- captive_portal -->
<g id="node2" class="node">
<title>captive_portal</title>
<polygon fill="none" stroke="#000000" points="292.8898,-213.6 195.9154,-213.6 195.9154,-177.6 292.8898,-177.6 292.8898,-213.6"/>
<text text-anchor="middle" x="244.4026" y="-191.4" font-family="Times,serif" font-size="14.00" fill="#000000">Captive Portal</text>
</g>
<!-- start&#45;&gt;captive_portal -->
<g id="edge1" class="edge">
<title>start-&gt;captive_portal</title>
<path fill="none" stroke="#000000" d="M489.6974,-254.6974C436.0317,-241.7681 356.4789,-222.6019 302.6422,-209.6313"/>
<polygon fill="#000000" stroke="#000000" points="303.4426,-206.2241 292.901,-207.2844 301.803,-213.0294 303.4426,-206.2241"/>
</g>
<!-- internet -->
<g id="node3" class="node">
<title>internet</title>
<polygon fill="none" stroke="#000000" points="576.936,-213.6 517.8692,-213.6 517.8692,-177.6 576.936,-177.6 576.936,-213.6"/>
<text text-anchor="middle" x="547.4026" y="-191.4" font-family="Times,serif" font-size="14.00" fill="#000000">Internet</text>
</g>
<!-- start&#45;&gt;internet -->
<g id="edge2" class="edge">
<title>start-&gt;internet</title>
<path fill="none" stroke="#000000" d="M547.4026,-250.5551C547.4026,-242.4828 547.4026,-232.7764 547.4026,-223.7817"/>
<polygon fill="#000000" stroke="#000000" points="550.9027,-223.6903 547.4026,-213.6904 543.9027,-223.6904 550.9027,-223.6903"/>
</g>
<!-- other -->
<g id="node4" class="node">
<title>other</title>
<polygon fill="none" stroke="#000000" points="725.8617,-213.6 628.9435,-213.6 628.9435,-177.6 725.8617,-177.6 725.8617,-213.6"/>
<text text-anchor="middle" x="677.4026" y="-191.4" font-family="Times,serif" font-size="14.00" fill="#000000">Other Devices</text>
</g>
<!-- start&#45;&gt;other -->
<g id="edge3" class="edge">
<title>start-&gt;other</title>
<path fill="none" stroke="#000000" d="M579.5374,-250.5551C596.7252,-240.9035 618.0734,-228.9156 636.4409,-218.6016"/>
<polygon fill="#000000" stroke="#000000" points="638.1812,-221.6384 645.1869,-213.6904 634.7538,-215.5349 638.1812,-221.6384"/>
</g>
<!-- check_valid_1_1 -->
<g id="node5" class="node">
<title>check_valid_1_1</title>
<polygon fill="none" stroke="#000000" points="208.7079,-124.8 .0973,-124.8 .0973,-88.8 208.7079,-88.8 208.7079,-124.8"/>
<text text-anchor="middle" x="104.4026" y="-102.6" font-family="Times,serif" font-size="14.00" fill="#000000">Whether the user is authenticated?</text>
</g>
<!-- captive_portal&#45;&gt;check_valid_1_1 -->
<g id="edge8" class="edge">
<title>captive_portal-&gt;check_valid_1_1</title>
<path fill="none" stroke="#000000" d="M195.9011,-183.3035C179.4924,-177.7197 161.6753,-169.9834 147.1978,-159.6 137.2873,-152.4921 128.4034,-142.5168 121.3325,-133.1481"/>
<polygon fill="#000000" stroke="#000000" points="124.036,-130.9115 115.3712,-124.8144 118.3426,-134.9841 124.036,-130.9115"/>
<text text-anchor="middle" x="189.005" y="-147" font-family="Times,serif" font-size="14.00" fill="#000000">Send to Others</text>
</g>
<!-- set_mod_1 -->
<g id="node9" class="node">
<title>set_mod_1</title>
<polygon fill="none" stroke="#000000" points="328.4272,-36 160.378,-36 160.378,0 328.4272,0 328.4272,-36"/>
<text text-anchor="middle" x="244.4026" y="-13.8" font-family="Times,serif" font-size="14.00" fill="#000000">Send to corresponding port</text>
</g>
<!-- captive_portal&#45;&gt;set_mod_1 -->
<g id="edge7" class="edge">
<title>captive_portal-&gt;set_mod_1</title>
<path fill="none" stroke="#000000" d="M244.4026,-177.5934C244.4026,-146.612 244.4026,-83.006 244.4026,-46.1346"/>
<polygon fill="#000000" stroke="#000000" points="247.9027,-46.0542 244.4026,-36.0543 240.9027,-46.0543 247.9027,-46.0542"/>
<text text-anchor="middle" x="289.1123" y="-102.6" font-family="Times,serif" font-size="14.00" fill="#000000">Send to Internet</text>
</g>
<!-- check_valid_1_2 -->
<g id="node6" class="node">
<title>check_valid_1_2</title>
<polygon fill="none" stroke="#000000" points="560.7079,-124.8 352.0973,-124.8 352.0973,-88.8 560.7079,-88.8 560.7079,-124.8"/>
<text text-anchor="middle" x="456.4026" y="-102.6" font-family="Times,serif" font-size="14.00" fill="#000000">Whether the user is authenticated?</text>
</g>
<!-- internet&#45;&gt;check_valid_1_2 -->
<g id="edge10" class="edge">
<title>internet-&gt;check_valid_1_2</title>
<path fill="none" stroke="#000000" d="M520.6818,-177.4801C513.4156,-172.0718 505.7496,-165.897 499.1978,-159.6 490.8168,-151.5449 482.5486,-141.8702 475.5476,-133.0154"/>
<polygon fill="#000000" stroke="#000000" points="478.1372,-130.6417 469.2613,-124.8565 472.5922,-134.9141 478.1372,-130.6417"/>
<text text-anchor="middle" x="541.005" y="-147" font-family="Times,serif" font-size="14.00" fill="#000000">Send to Others</text>
</g>
<!-- set_mod_2 -->
<g id="node11" class="node">
<title>set_mod_2</title>
<polygon fill="none" stroke="#000000" points="680.4272,-36 512.378,-36 512.378,0 680.4272,0 680.4272,-36"/>
<text text-anchor="middle" x="596.4026" y="-13.8" font-family="Times,serif" font-size="14.00" fill="#000000">Send to corresponding port</text>
</g>
<!-- internet&#45;&gt;set_mod_2 -->
<g id="edge9" class="edge">
<title>internet-&gt;set_mod_2</title>
<path fill="none" stroke="#000000" d="M569.756,-177.2987C574.7175,-172.1056 579.3908,-166.0824 582.4026,-159.6 599.2744,-123.2857 600.3933,-76.1887 598.9439,-46.5227"/>
<polygon fill="#000000" stroke="#000000" points="602.4306,-46.1981 598.3182,-36.434 595.444,-46.6315 602.4306,-46.1981"/>
<text text-anchor="middle" x="662.5895" y="-102.6" font-family="Times,serif" font-size="14.00" fill="#000000">Send to Captive Portal</text>
</g>
<!-- check_valid_2 -->
<g id="node7" class="node">
<title>check_valid_2</title>
<polygon fill="none" stroke="#000000" points="949.7079,-124.8 741.0973,-124.8 741.0973,-88.8 949.7079,-88.8 949.7079,-124.8"/>
<text text-anchor="middle" x="845.4026" y="-102.6" font-family="Times,serif" font-size="14.00" fill="#000000">Whether the user is authenticated?</text>
</g>
<!-- other&#45;&gt;check_valid_2 -->
<g id="edge4" class="edge">
<title>other-&gt;check_valid_2</title>
<path fill="none" stroke="#000000" d="M711.8053,-177.4157C737.9383,-163.6026 774.0494,-144.5153 802.1403,-129.6672"/>
<polygon fill="#000000" stroke="#000000" points="804.128,-132.5755 811.3334,-124.808 800.8568,-126.3868 804.128,-132.5755"/>
</g>
<!-- drop_1 -->
<g id="node8" class="node">
<title>drop_1</title>
<polygon fill="none" stroke="#000000" points="142.8108,-36 47.9944,-36 47.9944,0 142.8108,0 142.8108,-36"/>
<text text-anchor="middle" x="95.4026" y="-13.8" font-family="Times,serif" font-size="14.00" fill="#000000">Drop Package</text>
</g>
<!-- check_valid_1_1&#45;&gt;drop_1 -->
<g id="edge11" class="edge">
<title>check_valid_1_1-&gt;drop_1</title>
<path fill="none" stroke="#000000" d="M102.5378,-88.4006C101.2987,-76.175 99.6481,-59.8887 98.2465,-46.0599"/>
<polygon fill="#000000" stroke="#000000" points="101.7248,-45.6681 97.2342,-36.072 94.7605,-46.374 101.7248,-45.6681"/>
<text text-anchor="middle" x="114.6165" y="-58.2" font-family="Times,serif" font-size="14.00" fill="#000000">True</text>
</g>
<!-- check_valid_1_1&#45;&gt;set_mod_1 -->
<g id="edge12" class="edge">
<title>check_valid_1_1-&gt;set_mod_1</title>
<path fill="none" stroke="#000000" d="M133.0715,-88.6157C154.494,-75.0277 183.9628,-56.3361 207.2007,-41.5966"/>
<polygon fill="#000000" stroke="#000000" points="209.2022,-44.4719 215.772,-36.16 205.4527,-38.5607 209.2022,-44.4719"/>
<text text-anchor="middle" x="202.1761" y="-58.2" font-family="Times,serif" font-size="14.00" fill="#000000">False</text>
</g>
<!-- drop_2 -->
<g id="node10" class="node">
<title>drop_2</title>
<polygon fill="none" stroke="#000000" points="494.5967,-36 406.2085,-36 406.2085,0 494.5967,0 494.5967,-36"/>
<text text-anchor="middle" x="450.4026" y="-13.8" font-family="Times,serif" font-size="14.00" fill="#000000">Drop Packag</text>
</g>
<!-- check_valid_1_2&#45;&gt;drop_2 -->
<g id="edge13" class="edge">
<title>check_valid_1_2-&gt;drop_2</title>
<path fill="none" stroke="#000000" d="M455.1594,-88.4006C454.3333,-76.175 453.2329,-59.8887 452.2985,-46.0599"/>
<polygon fill="#000000" stroke="#000000" points="455.79,-45.8133 451.6237,-36.072 448.8059,-46.2852 455.79,-45.8133"/>
<text text-anchor="middle" x="469.1761" y="-58.2" font-family="Times,serif" font-size="14.00" fill="#000000">False</text>
</g>
<!-- check_valid_1_2&#45;&gt;set_mod_2 -->
<g id="edge14" class="edge">
<title>check_valid_1_2-&gt;set_mod_2</title>
<path fill="none" stroke="#000000" d="M485.0715,-88.6157C506.494,-75.0277 535.9628,-56.3361 559.2007,-41.5966"/>
<polygon fill="#000000" stroke="#000000" points="561.2022,-44.4719 567.772,-36.16 557.4527,-38.5607 561.2022,-44.4719"/>
<text text-anchor="middle" x="552.6165" y="-58.2" font-family="Times,serif" font-size="14.00" fill="#000000">True</text>
</g>
<!-- set_mod3 -->
<g id="node12" class="node">
<title>set_mod3</title>
<polygon fill="none" stroke="#000000" points="869.6035,-36 739.2017,-36 739.2017,0 869.6035,0 869.6035,-36"/>
<text text-anchor="middle" x="804.4026" y="-13.8" font-family="Times,serif" font-size="14.00" fill="#000000">Send to internet port</text>
</g>
<!-- check_valid_2&#45;&gt;set_mod3 -->
<g id="edge5" class="edge">
<title>check_valid_2-&gt;set_mod3</title>
<path fill="none" stroke="#000000" d="M836.9074,-88.4006C831.152,-75.9353 823.4475,-59.2484 816.9839,-45.2494"/>
<polygon fill="#000000" stroke="#000000" points="820.1162,-43.6838 812.7467,-36.072 813.7609,-46.6182 820.1162,-43.6838"/>
<text text-anchor="middle" x="842.6165" y="-58.2" font-family="Times,serif" font-size="14.00" fill="#000000">True</text>
</g>
<!-- set_mod4 -->
<g id="node13" class="node">
<title>set_mod4</title>
<polygon fill="none" stroke="#000000" points="1052.4237,-36 888.3815,-36 888.3815,0 1052.4237,0 1052.4237,-36"/>
<text text-anchor="middle" x="970.4026" y="-13.8" font-family="Times,serif" font-size="14.00" fill="#000000">Send to captive portal port</text>
</g>
<!-- check_valid_2&#45;&gt;set_mod4 -->
<g id="edge6" class="edge">
<title>check_valid_2-&gt;set_mod4</title>
<path fill="none" stroke="#000000" d="M870.9999,-88.6157C889.9586,-75.1474 915.9754,-56.6651 936.6369,-41.9871"/>
<polygon fill="#000000" stroke="#000000" points="938.7143,-44.8047 944.8396,-36.16 934.6603,-39.0981 938.7143,-44.8047"/>
<text text-anchor="middle" x="934.1761" y="-58.2" font-family="Times,serif" font-size="14.00" fill="#000000">False</text>
</g>
</g>
</svg>